<svg width="512" height="512" viewBox="0 0 512 512" fill="none" xmlns="http://www.w3.org/2000/svg">
  <!-- Background Circle -->
  <circle cx="256" cy="256" r="256" fill="url(#gradient1)"/>
  
  <!-- Shield Shape -->
  <path d="M256 80L140 140V240C140 320 180 380 256 420C332 380 372 320 372 240V140L256 80Z" fill="url(#gradient2)" stroke="#FFF" stroke-width="8"/>
  
  <!-- Star -->
  <path d="M256 180L270 220L310 220L278 244L292 284L256 260L220 284L234 244L202 220L242 220L256 180Z" fill="#FFD700"/>
  
  <!-- Trophy -->
  <path d="M230 300H282V320H230V300Z" fill="#FFF"/>
  <path d="M220 320H292L286 350H226L220 320Z" fill="#FFF"/>
  <ellipse cx="256" cy="290" rx="30" ry="20" fill="#FFD700"/>
  
  <defs>
    <linearGradient id="gradient1" x1="0" y1="0" x2="512" y2="512">
      <stop offset="0%" stop-color="#EC4899"/>
      <stop offset="50%" stop-color="#A855F7"/>
      <stop offset="100%" stop-color="#F97316"/>
    </linearGradient>
    <linearGradient id="gradient2" x1="140" y1="80" x2="372" y2="420">
      <stop offset="0%" stop-color="#8B5CF6"/>
      <stop offset="100%" stop-color="#EC4899"/>
    </linearGradient>
  </defs>
</svg>
